<?xml version="1.0" encoding="utf-8"?>
<!-- Generator: Adobe Illustrator 19.2.1, SVG Export Plug-In . SVG Version: 6.00 Build 0)  -->
<svg version="1.1" id="레이어_1" xmlns="http://www.w3.org/2000/svg" xmlns:xlink="http://www.w3.org/1999/xlink" x="0px"
	 y="0px" viewBox="0 0 195 40" style="enable-background:new 0 0 195 40;" xml:space="preserve">
<g>
	<path d="M2.1,28.6h3.8V5.3H2.1V4.8h6.5c0.3,0,0.5,0,0.8,0c0.3,0,0.5,0,0.8-0.1c0.3,0,0.5,0,0.8,0c0.3,0,0.5,0,0.8,0
		c1.3,0,2.5,0.1,3.6,0.2c1,0.1,2,0.6,2.9,1.3c0.8,0.6,1.4,1.3,1.7,2.1c0.3,0.8,0.5,1.5,0.5,2.2c0,0.3-0.1,0.8-0.2,1.3
		c-0.1,0.5-0.4,1.1-0.8,1.6c-0.4,0.6-1,1.1-1.8,1.5c-0.8,0.5-1.9,0.8-3.2,0.9V16c0.4,0,0.9,0.1,1.5,0.3c0.6,0.1,1.3,0.3,1.9,0.6
		c0.6,0.3,1.2,0.7,1.8,1.2c0.5,0.5,0.9,1.1,1.2,1.9c0.1,0.5,0.2,1,0.3,1.6c0.1,0.6,0.1,1.2,0.1,1.8c0,0.6,0.1,1.2,0.1,1.8
		c0,0.6,0.1,1,0.2,1.4c0.1,0.6,0.4,1.1,0.6,1.6c0.3,0.5,0.8,0.7,1.4,0.7c0.3,0,0.6-0.1,0.9-0.2c0.3-0.1,0.6-0.3,0.9-0.5l0.3,0.4
		c-0.1,0.1-0.2,0.2-0.4,0.3c-0.1,0.1-0.3,0.2-0.6,0.3s-0.5,0.2-0.8,0.2c-0.3,0.1-0.7,0.1-1.2,0.1c-0.9,0-1.7-0.1-2.3-0.3
		s-1.1-0.6-1.5-1c-0.4-0.4-0.6-1-0.8-1.6c-0.2-0.6-0.3-1.4-0.4-2.3L17.6,21c-0.1-1.1-0.3-2-0.7-2.7c-0.4-0.6-0.8-1.1-1.3-1.4
		c-0.5-0.3-1-0.5-1.5-0.5s-1-0.1-1.4-0.1H9.3v12.3h3.8v0.5h-11V28.6z M9.3,15.8h3.1c0.6,0,1.2-0.1,1.7-0.2c0.5-0.2,1-0.4,1.3-0.8
		c0.4-0.4,0.7-0.9,0.9-1.6s0.3-1.5,0.3-2.6c0-1.2-0.2-2.1-0.5-2.9c-0.3-0.7-0.7-1.3-1.2-1.6c-0.5-0.4-1-0.6-1.6-0.7
		c-0.6-0.1-1.2-0.2-1.8-0.2c-0.4,0-0.8,0-1.2,0c-0.4,0-0.8,0-1.1,0.1V15.8z"/>
	<path d="M30,20.7c0,0.2,0,0.5,0,0.7c0,0.2,0,0.5,0,0.9c0,0.8,0,1.5,0.1,2.4c0.1,0.8,0.3,1.6,0.6,2.2c0.3,0.7,0.8,1.2,1.4,1.6
		c0.6,0.4,1.4,0.6,2.4,0.6c1,0,1.8-0.1,2.5-0.4c0.6-0.3,1.2-0.7,1.5-1.1c0.4-0.4,0.7-0.8,0.8-1.3c0.2-0.4,0.3-0.8,0.4-1.1l0.5,0.1
		c-0.1,0.3-0.2,0.6-0.4,1.1c-0.2,0.5-0.5,0.9-0.9,1.4s-1,0.9-1.7,1.2c-0.7,0.4-1.6,0.5-2.8,0.5c-1.1,0-2.2-0.2-3.2-0.5
		c-1-0.4-1.8-0.9-2.5-1.6c-0.7-0.7-1.3-1.5-1.6-2.4c-0.4-0.9-0.6-2-0.6-3.2c0-1,0.2-2,0.6-2.9c0.4-0.9,0.9-1.8,1.6-2.5
		c0.7-0.7,1.5-1.3,2.4-1.8s1.9-0.7,3-0.7c0.6,0,1.3,0.1,2,0.3c0.7,0.2,1.4,0.6,2,1.1c0.6,0.5,1.1,1.2,1.6,2c0.4,0.8,0.6,1.9,0.6,3.1
		H30z M37.1,20.2c0-0.3,0.1-0.6,0.1-0.9c0-0.3,0-0.6,0-0.9c0-0.8-0.1-1.4-0.2-1.9c-0.1-0.5-0.4-0.9-0.6-1.2c-0.3-0.3-0.6-0.5-1-0.6
		s-0.8-0.2-1.2-0.2c-0.8,0-1.4,0.2-1.9,0.5c-0.5,0.3-0.9,0.7-1.2,1.2c-0.3,0.5-0.5,1.1-0.7,1.8c-0.1,0.7-0.2,1.4-0.3,2.2H37.1z"/>
	<path d="M43.6,26.9c0-0.6,0.1-1.1,0.3-1.6c0.2-0.4,0.5-0.8,0.8-1.2c0.3-0.3,0.7-0.6,1.1-0.8c0.4-0.2,0.7-0.4,1-0.5
		c-1.3-0.9-2-2.1-2-3.7c0-0.8,0.2-1.5,0.6-2.2c0.4-0.6,0.9-1.2,1.5-1.6c0.6-0.4,1.2-0.8,2-1c0.7-0.2,1.4-0.3,2.1-0.3
		c1,0,1.9,0.2,2.6,0.6c0.7,0.4,1.3,0.8,1.6,1.1c0.3-0.4,0.6-0.8,1.1-1.2c0.5-0.4,1.1-0.5,1.8-0.5c0.5,0,0.9,0.1,1.3,0.3
		c0.4,0.2,0.6,0.6,0.6,1.2c0,0.4-0.1,0.7-0.4,0.9c-0.3,0.2-0.5,0.3-0.8,0.3c-0.3,0-0.5-0.1-0.7-0.3c-0.1-0.2-0.3-0.4-0.4-0.6
		c-0.1-0.2-0.2-0.4-0.3-0.6c-0.1-0.2-0.3-0.3-0.5-0.3s-0.5,0.1-0.7,0.3c-0.2,0.2-0.4,0.4-0.6,0.7c0.2,0.2,0.5,0.6,0.8,1.2
		c0.3,0.5,0.5,1.2,0.5,2.1c0,0.7-0.2,1.3-0.5,1.9c-0.3,0.6-0.8,1.1-1.3,1.5c-0.6,0.4-1.2,0.8-1.9,1S51.6,24,50.8,24
		c-0.8,0-1.5-0.1-2.1-0.3c-0.6-0.2-1-0.4-1.4-0.6c-0.3,0.1-0.5,0.2-0.8,0.4S46,23.8,45.8,24c-0.2,0.2-0.4,0.4-0.6,0.7
		c-0.2,0.3-0.2,0.6-0.2,1c0,0.3,0.1,0.6,0.2,0.9c0.1,0.2,0.3,0.4,0.5,0.5c0.2,0.1,0.5,0.2,0.7,0.2c0.3,0,0.6,0.1,0.9,0.1h5.4
		c1.6,0,2.9,0.4,3.8,1.1c0.9,0.8,1.4,2,1.4,3.6c0,1-0.2,1.9-0.6,2.7c-0.4,0.8-1,1.5-1.7,2.1c-0.7,0.6-1.5,1.1-2.5,1.4
		c-0.9,0.3-1.9,0.5-2.9,0.5c-0.9,0-1.7-0.1-2.4-0.3c-0.7-0.2-1.4-0.5-1.9-0.8c-0.5-0.4-1-0.8-1.3-1.3C44.2,36,44,35.4,44,34.8
		c0-0.6,0.1-1.1,0.4-1.6c0.2-0.5,0.5-0.9,0.9-1.3c0.4-0.4,0.8-0.7,1.3-1c0.5-0.3,1-0.5,1.4-0.7v-0.1c-1.5,0-2.6-0.2-3.3-0.7
		C44,28.9,43.6,28.1,43.6,26.9z M48.8,30.2c-0.3,0.2-0.6,0.4-0.9,0.6c-0.3,0.2-0.6,0.4-0.8,0.7c-0.2,0.3-0.4,0.6-0.6,1
		c-0.1,0.4-0.2,0.9-0.2,1.5c0,0.8,0.1,1.5,0.4,2c0.3,0.5,0.6,1,1.1,1.3c0.4,0.3,0.9,0.6,1.5,0.7c0.5,0.1,1.1,0.2,1.6,0.2
		c0.8,0,1.6-0.1,2.2-0.4c0.7-0.3,1.3-0.6,1.7-1c0.5-0.4,0.9-0.9,1.1-1.5c0.3-0.5,0.4-1.1,0.4-1.7c0-1.3-0.3-2.2-1-2.7
		c-0.7-0.5-1.6-0.8-2.9-0.8H48.8z M54.3,19c0-0.5,0-1.1-0.1-1.6c-0.1-0.5-0.2-1-0.4-1.5c-0.2-0.4-0.5-0.8-1-1.1
		c-0.4-0.3-1-0.4-1.8-0.4c-1.2,0-2,0.4-2.6,1.1c-0.6,0.7-0.9,1.9-0.9,3.5c0,0.7,0.1,1.3,0.2,1.8c0.1,0.5,0.3,1,0.6,1.4
		c0.3,0.4,0.6,0.7,1.1,0.9c0.5,0.2,1,0.3,1.7,0.3c1.2,0,2-0.4,2.5-1.1C54,21.7,54.3,20.6,54.3,19z"/>
	<path d="M79.3,29.1h-5.5v-3.5h-0.1c-0.2,0.5-0.4,0.9-0.7,1.4c-0.3,0.5-0.6,0.9-1.1,1.3c-0.4,0.4-0.9,0.7-1.5,0.9
		c-0.6,0.2-1.2,0.4-2,0.4c-0.9,0-1.7-0.1-2.2-0.3c-0.6-0.2-1-0.4-1.3-0.6c-0.2-0.1-0.3-0.3-0.5-0.4c-0.2-0.2-0.4-0.4-0.5-0.7
		c-0.2-0.3-0.3-0.7-0.4-1.1c-0.1-0.5-0.2-1-0.2-1.7V15h-2.6v-0.5h5.6V25c0,0.6,0,1.1,0.1,1.6c0.1,0.5,0.2,0.9,0.5,1.3
		c0.2,0.4,0.5,0.7,0.9,0.9c0.4,0.2,0.8,0.3,1.4,0.3c0.5,0,1-0.1,1.6-0.4c0.5-0.3,1-0.7,1.5-1.3c0.4-0.5,0.8-1.2,1.1-2
		c0.3-0.8,0.4-1.6,0.4-2.6V15h-2.6v-0.5h5.5v14.2h2.6V29.1z"/>
	<path d="M81.1,28.6h2.6V5h-2.6V4.5h5.6v24.1h2.6v0.5h-8.2V28.6z"/>
	<path d="M106.6,28.8c-0.3,0.2-0.6,0.4-1.1,0.6c-0.4,0.2-0.9,0.3-1.5,0.3c-1.1,0-1.9-0.2-2.4-0.7c-0.5-0.5-0.8-1.1-1-2h-0.1
		c-0.1,0.2-0.2,0.5-0.4,0.8c-0.2,0.3-0.4,0.6-0.7,0.9c-0.3,0.3-0.8,0.5-1.3,0.7c-0.5,0.2-1.2,0.3-2.1,0.3c-1,0-1.7-0.1-2.3-0.3
		c-0.6-0.2-1-0.5-1.3-0.8c-0.3-0.3-0.5-0.7-0.6-1.1c-0.1-0.4-0.2-0.8-0.2-1.1c0-0.8,0.2-1.4,0.5-1.9c0.3-0.5,0.7-0.9,1.2-1.1
		c0.5-0.3,1.1-0.5,1.7-0.7c0.6-0.2,1.3-0.4,1.9-0.6c0.8-0.3,1.4-0.5,1.9-0.6c0.5-0.2,0.9-0.4,1.1-0.7c0.3-0.3,0.5-0.6,0.6-1
		c0.1-0.4,0.2-0.9,0.2-1.6c0-0.5,0-1-0.1-1.5c-0.1-0.4-0.2-0.8-0.4-1.1c-0.2-0.3-0.4-0.5-0.8-0.7c-0.3-0.2-0.8-0.2-1.4-0.2
		c-0.8,0-1.4,0.1-1.9,0.4c-0.5,0.3-0.7,0.7-0.7,1.3c0,0.4,0,0.8,0.1,1.1c0.1,0.4,0.1,0.7,0.1,0.8c0,0.3-0.1,0.6-0.3,0.8
		c-0.2,0.2-0.6,0.3-1,0.3c-0.8,0-1.2-0.1-1.4-0.4c-0.2-0.3-0.3-0.6-0.3-1.1c0-0.5,0.1-1,0.3-1.4c0.2-0.5,0.6-0.9,1-1.2
		s1-0.6,1.7-0.8c0.7-0.2,1.4-0.3,2.3-0.3c1,0,1.9,0.1,2.6,0.4c0.7,0.3,1.3,0.6,1.7,1.1c0.4,0.4,0.7,0.9,0.9,1.5
		c0.2,0.6,0.3,1.1,0.3,1.8v8.5c0,0.7,0.1,1.1,0.3,1.3c0.2,0.2,0.5,0.3,0.9,0.3c0.3,0,0.5,0,0.8-0.1c0.3-0.1,0.5-0.2,0.8-0.4
		L106.6,28.8z M100.6,20.8L100.6,20.8c-0.1,0.3-0.5,0.6-1.2,0.9l-2.6,1c-0.7,0.3-1.3,0.7-1.7,1.2c-0.4,0.5-0.6,1.2-0.6,2
		c0,0.3,0,0.7,0.1,1.1c0.1,0.4,0.2,0.7,0.4,1c0.2,0.3,0.4,0.5,0.8,0.7c0.3,0.2,0.8,0.3,1.3,0.3c0.8,0,1.4-0.2,1.8-0.5
		c0.5-0.3,0.8-0.7,1.1-1.2c0.2-0.5,0.4-1,0.5-1.6c0.1-0.6,0.1-1.1,0.1-1.5V20.8z"/>
	<path d="M107.6,28.6h2.6V15h-2.6v-0.5h5.5v3.5h0.1c0.1-0.3,0.2-0.7,0.4-1.2s0.5-0.8,0.9-1.2c0.4-0.4,0.8-0.7,1.3-1
		c0.5-0.3,1.1-0.4,1.9-0.4c0.5,0,1,0.1,1.4,0.3c0.4,0.2,0.7,0.4,1,0.6c0.3,0.3,0.4,0.6,0.5,0.9c0.1,0.3,0.2,0.7,0.2,1
		c0,0.8-0.2,1.3-0.5,1.5c-0.3,0.3-0.7,0.4-1.2,0.4c-1,0-1.5-0.3-1.5-1c0-0.2,0-0.4,0.1-0.5c0-0.1,0.1-0.3,0.2-0.4
		c0.1-0.1,0.1-0.3,0.2-0.4c0-0.2,0.1-0.4,0.1-0.7c0-0.7-0.4-1.1-1.2-1.1c-0.4,0-0.8,0.1-1.2,0.4c-0.4,0.3-0.8,0.7-1.1,1.2
		c-0.4,0.5-0.6,1.2-0.9,1.9s-0.4,1.6-0.4,2.5v7.8h3v0.5h-8.5V28.6z"/>
	<path d="M121.8,5.3V4.8h5.2c1,0,1.9,0,2.8-0.1c0.9,0,1.9-0.1,2.8-0.1c0.9,0,1.8,0.1,2.8,0.3c1,0.2,1.9,0.5,2.7,0.9
		c0.8,0.4,1.5,1,2,1.7c0.5,0.7,0.8,1.6,0.8,2.7c0,1-0.3,1.8-0.8,2.5s-1.1,1.2-1.9,1.7c-0.7,0.4-1.5,0.8-2.3,1
		c-0.8,0.2-1.5,0.4-2,0.4v0.1c0.9,0.1,1.8,0.2,2.8,0.4c1,0.2,1.8,0.6,2.6,1.1c0.8,0.5,1.5,1.1,2,1.9c0.5,0.8,0.8,1.8,0.8,3
		c0,1.3-0.3,2.4-1,3.3c-0.7,0.9-1.5,1.5-2.5,2c-1,0.5-2,0.8-3.1,1c-1.1,0.2-2.1,0.3-2.9,0.3c-1,0-1.9,0-2.9,0c-0.9,0-1.9,0-2.9,0
		h-5.2v-0.5h3.1V5.3H121.8z M131.2,15.8c1,0,1.8-0.1,2.4-0.4c0.6-0.3,1-0.6,1.3-1.1c0.3-0.5,0.5-1,0.6-1.6c0.1-0.6,0.1-1.2,0.1-1.8
		c0-1-0.1-1.9-0.2-2.6c-0.1-0.7-0.4-1.3-0.7-1.8c-0.3-0.5-0.8-0.8-1.3-1c-0.6-0.2-1.3-0.3-2.1-0.3c-0.3,0-0.5,0-0.8,0
		c-0.3,0-0.5,0-0.8,0.1v10.6H131.2z M131.8,28.8c0.7,0,1.4-0.1,2-0.3c0.6-0.2,1.1-0.5,1.5-1c0.4-0.5,0.7-1.1,0.9-2
		c0.2-0.9,0.3-2,0.3-3.4c0-0.4,0-0.9-0.1-1.6c-0.1-0.6-0.3-1.3-0.6-1.9c-0.3-0.6-0.8-1.2-1.4-1.7c-0.6-0.5-1.5-0.7-2.6-0.7h-2v12.3
		C130.5,28.7,131.1,28.8,131.8,28.8z"/>
	<path d="M156.7,14.6c1,0.4,1.9,1,2.6,1.7c0.8,0.7,1.3,1.5,1.8,2.5c0.4,0.9,0.6,1.9,0.6,3c0,1.1-0.2,2.1-0.6,3
		c-0.4,0.9-1,1.8-1.8,2.5c-0.8,0.7-1.6,1.3-2.6,1.7c-1,0.4-2.1,0.6-3.3,0.6c-1.2,0-2.3-0.2-3.3-0.6c-1-0.4-1.9-1-2.6-1.7
		c-0.8-0.7-1.3-1.5-1.8-2.5c-0.4-0.9-0.6-2-0.6-3c0-1,0.2-2,0.6-3c0.4-0.9,1-1.8,1.8-2.5c0.8-0.7,1.6-1.3,2.6-1.7
		c1-0.4,2.1-0.6,3.3-0.6C154.6,14,155.7,14.2,156.7,14.6z M155.5,28.5c0.5-0.4,0.9-1,1.1-1.7c0.2-0.7,0.4-1.5,0.4-2.4
		c0.1-0.9,0.1-1.8,0.1-2.7c0-0.9,0-1.8-0.1-2.7c-0.1-0.9-0.2-1.7-0.4-2.3s-0.6-1.2-1.1-1.7c-0.5-0.4-1.2-0.6-2.1-0.6
		c-0.9,0-1.6,0.2-2.1,0.6c-0.5,0.4-0.9,1-1.1,1.7c-0.2,0.7-0.4,1.5-0.4,2.3c-0.1,0.9-0.1,1.8-0.1,2.7c0,0.9,0,1.8,0.1,2.7
		c0.1,0.9,0.2,1.7,0.4,2.4c0.2,0.7,0.6,1.2,1.1,1.7c0.5,0.4,1.2,0.6,2.1,0.6C154.3,29.1,155,28.9,155.5,28.5z"/>
	<path d="M170.6,4.5v24.1h2.3v0.5h-8.7v-0.5h2.3V5h-2.3V4.5H170.6z"/>
	<path d="M192.9,28.6v0.5h-6.4v-2.5h-0.1c-0.4,1-0.9,1.7-1.5,2.2s-1.5,0.8-2.5,0.8c-1.1,0-2.1-0.2-3-0.6c-0.9-0.4-1.7-1-2.3-1.7
		s-1.2-1.5-1.5-2.5c-0.4-0.9-0.5-1.9-0.5-2.9c0-0.8,0.1-1.7,0.4-2.6c0.3-0.9,0.7-1.8,1.3-2.5c0.6-0.8,1.4-1.4,2.3-1.9
		c0.9-0.5,2.1-0.8,3.4-0.8c1,0,1.9,0.2,2.5,0.7c0.6,0.5,1.1,1.2,1.5,2.2h0.1V5h-2.3V4.5h6.5v24.1H192.9z M186.4,19.4
		c-0.1-0.9-0.2-1.7-0.5-2.4c-0.3-0.7-0.6-1.3-1.1-1.8c-0.5-0.5-1.2-0.7-2-0.7c-0.6,0-1.1,0.1-1.5,0.4c-0.4,0.3-0.7,0.7-1,1.2
		c-0.3,0.6-0.4,1.3-0.5,2.3c-0.1,0.9-0.2,2.1-0.2,3.5c0,1.1,0,2.1,0.1,3c0.1,0.9,0.2,1.7,0.4,2.3c0.2,0.6,0.5,1.1,0.9,1.5
		c0.4,0.3,0.9,0.5,1.5,0.5c1,0,1.7-0.2,2.2-0.7c0.5-0.5,0.9-1.1,1.2-1.8c0.3-0.7,0.4-1.5,0.5-2.4c0.1-0.9,0.1-1.6,0.1-2.3
		C186.5,21.1,186.4,20.3,186.4,19.4z"/>
</g>
</svg>
